<svg width="17" height="21" viewBox="0 0 17 21" fill="none" xmlns="http://www.w3.org/2000/svg">
<path fill-rule="evenodd" clip-rule="evenodd" d="M4.1875 4.75C4.1875 3.60625 4.64185 2.50935 5.45061 1.7006C6.25936 0.891851 7.35626 0.4375 8.5 0.4375C9.64375 0.4375 10.7407 0.891851 11.5494 1.7006C12.3582 2.50935 12.8125 3.60625 12.8125 4.75C12.8125 5.89375 12.3582 6.99065 11.5494 7.7994C10.7407 8.60815 9.64375 9.0625 8.5 9.0625C7.35626 9.0625 6.25936 8.60815 5.45061 7.7994C4.64185 6.99065 4.1875 5.89375 4.1875 4.75ZM0.594711 18.2673C0.627027 16.192 1.47412 14.2126 2.95313 12.7565C4.43215 11.3003 6.42446 10.4841 8.5 10.4841C10.5756 10.4841 12.5679 11.3003 14.0469 12.7565C15.5259 14.2126 16.373 16.192 16.4053 18.2673C16.4078 18.407 16.3695 18.5444 16.2951 18.6627C16.2207 18.781 16.1135 18.875 15.9865 18.9333C13.6378 20.0102 11.0838 20.566 8.5 20.5625C5.83009 20.5625 3.29338 19.9798 1.0135 18.9333C0.88651 18.875 0.779263 18.781 0.704883 18.6627C0.630504 18.5444 0.592218 18.407 0.594711 18.2673Z" fill="white"/>
</svg>
