<svg width="23" height="23" viewBox="0 0 23 23" fill="none" xmlns="http://www.w3.org/2000/svg">
<path fill-rule="evenodd" clip-rule="evenodd" d="M5.24206 5.24207C5.37683 5.10747 5.55951 5.03187 5.74998 5.03187C5.94045 5.03187 6.12313 5.10747 6.25789 5.24207L11.5 10.4842L16.7421 5.24207C16.8079 5.17145 16.8872 5.11481 16.9754 5.07553C17.0635 5.03624 17.1587 5.01512 17.2552 5.01342C17.3517 5.01171 17.4476 5.02947 17.5371 5.06562C17.6266 5.10177 17.7079 5.15557 17.7761 5.22382C17.8444 5.29207 17.8982 5.37337 17.9343 5.46287C17.9705 5.55237 17.9882 5.64823 17.9865 5.74474C17.9848 5.84124 17.9637 5.93642 17.9244 6.02458C17.8852 6.11275 17.8285 6.1921 17.7579 6.2579L12.5158 11.5L17.7579 16.7421C17.8285 16.8079 17.8852 16.8872 17.9244 16.9754C17.9637 17.0635 17.9848 17.1587 17.9865 17.2552C17.9882 17.3517 17.9705 17.4476 17.9343 17.5371C17.8982 17.6266 17.8444 17.7079 17.7761 17.7761C17.7079 17.8444 17.6266 17.8982 17.5371 17.9344C17.4476 17.9705 17.3517 17.9883 17.2552 17.9866C17.1587 17.9848 17.0635 17.9637 16.9754 17.9244C16.8872 17.8852 16.8079 17.8285 16.7421 17.7579L11.5 12.5158L6.25789 17.7579C6.12164 17.8849 5.94143 17.954 5.75523 17.9507C5.56902 17.9474 5.39136 17.872 5.25967 17.7403C5.12799 17.6086 5.05255 17.4309 5.04927 17.2447C5.04598 17.0585 5.1151 16.8783 5.24206 16.7421L10.4841 11.5L5.24206 6.2579C5.10746 6.12314 5.03186 5.94045 5.03186 5.74998C5.03186 5.55951 5.10746 5.37683 5.24206 5.24207Z" fill="white"/>
</svg>
