<svg width="24" height="24" viewBox="0 0 24 24" fill="none" xmlns="http://www.w3.org/2000/svg">
<g clip-path="url(#clip0_21_323)">
<path d="M24 8.79356C23.9292 9.18415 23.876 9.5785 23.7852 9.96407C23.5009 11.1797 22.9167 12.2518 22.1678 13.2367C20.829 14.9978 19.2837 16.5709 17.6656 18.0686C15.8253 19.7727 13.9386 21.4259 12.0714 23.1005C12.0545 23.1156 12.0332 23.1262 11.9925 23.1532C11.6506 22.856 11.3037 22.5557 10.9587 22.2535C8.62179 20.2122 6.29805 18.1564 4.15341 15.9094C3.1653 14.8743 2.19787 13.8211 1.40262 12.6242C0.460233 11.2073 -0.0350708 9.65937 0.00187344 7.94342C0.0738835 4.60178 2.67877 1.60622 5.98121 1.09839C8.18409 0.759841 10.1415 1.31156 11.8522 2.74162C11.8942 2.77673 11.9374 2.80996 11.9956 2.85636C12.0488 2.81623 12.1052 2.77861 12.1565 2.73473C16.3106 -0.810665 22.7063 1.3567 23.8453 6.6983C23.9104 7.00299 23.9486 7.31271 23.9994 7.62054V8.79356H24ZM12.7013 20.7006C12.8904 20.5344 13.0319 20.4122 13.1722 20.288C15.4289 18.2862 17.6562 16.253 19.6882 14.0173C20.4402 13.1903 21.1684 12.3427 21.7226 11.3628C22.489 10.008 22.794 8.56472 22.4746 7.02807C21.9587 4.54661 20.0088 2.7504 17.4934 2.45197C15.7063 2.24007 14.1534 2.79303 12.8403 4.02185C12.7783 4.08016 12.7138 4.17232 12.7107 4.25132C12.6963 4.58611 12.7044 4.92152 12.7044 5.25381C14.4471 5.55474 15.124 6.92086 15.1302 7.94906C15.134 8.54403 14.9662 9.09073 14.6155 9.57411C14.1465 10.2199 13.5053 10.5847 12.6957 10.7026V13.996C12.2379 13.996 11.8053 13.9577 11.382 14.0048C10.6694 14.0837 10.1766 14.7953 10.2993 15.5013C10.4145 16.1652 10.9286 16.5991 11.6331 16.6172C11.9818 16.626 12.3312 16.6185 12.7019 16.6185V20.7006H12.7013ZM11.288 18.0097C9.85785 17.7545 8.92485 16.7345 8.87413 15.3753C8.85159 14.7627 9.02629 14.2004 9.38697 13.7032C9.85535 13.0574 10.4991 12.6951 11.3056 12.5753V9.30765C11.5041 9.30765 11.6756 9.31204 11.8466 9.3064C12.1271 9.29762 12.4126 9.31455 12.6857 9.26314C13.3269 9.14277 13.779 8.52397 13.7213 7.89451C13.6594 7.20989 13.1359 6.69516 12.4634 6.67322C12.0833 6.66068 11.7019 6.67071 11.2974 6.67071C11.2974 6.55911 11.2974 6.4751 11.2974 6.39109C11.2974 5.71838 11.2924 5.04566 11.3012 4.37357C11.3031 4.21119 11.2555 4.09834 11.1384 3.98674C8.63118 1.59243 4.51534 1.95857 2.51471 4.79363C1.10081 6.79673 1.06574 8.92522 2.13525 11.0901C2.69505 12.223 3.53224 13.159 4.37445 14.0844C6.25547 16.1508 8.31058 18.0379 10.3907 19.8981C10.6781 20.1551 10.9699 20.4072 11.288 20.6868V18.0097Z" fill="#4261DB"/>
</g>
<defs>
<clipPath id="clip0_21_323">
<rect width="24" height="24" fill="white"/>
</clipPath>
</defs>
</svg>
