<svg width="21" height="21" viewBox="0 0 21 21" fill="none" xmlns="http://www.w3.org/2000/svg">
<g clip-path="url(#clip0_33_386)">
<path d="M17.8847 6.16347C17.2986 2.67004 14.1407 0.0199878 10.5409 0C10.527 0 10.513 0 10.4996 0C6.82822 0 3.64862 2.70447 3.09373 6.30727C2.82271 8.06509 3.14011 9.71409 4.03699 11.2093C5.21048 13.1653 6.98693 14.379 9.31658 14.8171L9.43058 14.8382V16.5583H8.98465C8.76504 16.5583 8.55437 16.5583 8.3437 16.5583C7.9978 16.5555 7.72678 16.671 7.51779 16.9064C7.22162 17.2395 7.15513 17.6137 7.32053 18.019C7.49041 18.4338 7.80613 18.6548 8.26044 18.6753C8.48899 18.6853 8.71699 18.6831 8.95839 18.6803C9.06791 18.6792 9.17856 18.6781 9.29144 18.6781H9.43114V18.8169C9.43114 18.9396 9.43058 19.0595 9.43002 19.1778C9.4289 19.4404 9.42779 19.6886 9.43281 19.9384C9.44064 20.3215 9.60325 20.618 9.91618 20.8196C9.99888 20.8729 10.0961 20.9112 10.1995 20.9511C10.2403 20.9672 10.2816 20.9833 10.3219 21.0006H10.684C10.6873 20.9994 10.6901 20.9978 10.6935 20.9967C10.7209 20.9856 10.7516 20.9722 10.7851 20.9622C11.2601 20.8184 11.5613 20.4259 11.5719 19.9379C11.5758 19.768 11.5747 19.5942 11.5742 19.426C11.5742 19.3482 11.5736 19.2705 11.5736 19.1928V18.9501V18.677H11.7133C11.834 18.677 11.9508 18.6781 12.0653 18.6792C12.3084 18.6814 12.5375 18.6836 12.7655 18.6747C13.0796 18.662 13.3685 18.5076 13.5585 18.2506C13.7518 17.9896 13.8144 17.6631 13.7311 17.355C13.5993 16.8675 13.2047 16.5705 12.6761 16.5605C12.4599 16.5566 12.2475 16.5571 12.0229 16.5583C11.9228 16.5583 11.8217 16.5594 11.7206 16.5594H11.5809V14.8321L11.696 14.8115C13.7647 14.4423 15.4143 13.4202 16.5984 11.7728C17.7976 10.105 18.2312 8.21778 17.8864 6.16458L17.8847 6.16347ZM10.5074 12.7711C10.5024 12.7711 10.4968 12.7711 10.4917 12.7711C9.05562 12.7672 7.70667 12.2059 6.69244 11.191C5.68323 10.181 5.13113 8.84517 5.13784 7.42992C5.15125 4.50393 7.55579 2.12704 10.4996 2.12704H10.5085C11.9424 2.12926 13.2908 2.68947 14.305 3.70386C15.3159 4.71491 15.8691 6.05187 15.8624 7.46823C15.8485 10.3959 13.4473 12.7717 10.5068 12.7717L10.5074 12.7711Z" fill="#FA1DFF"/>
</g>
<defs>
<clipPath id="clip0_33_386">
<rect width="21" height="21" fill="white"/>
</clipPath>
</defs>
</svg>
