<svg width="24" height="24" viewBox="0 0 24 24" fill="none" xmlns="http://www.w3.org/2000/svg">
<g clip-path="url(#clip0_21_315)">
<path d="M23.9994 11.239C23.9805 11.1035 23.9623 10.9643 23.9447 10.8244C23.9064 10.5282 23.8675 10.2221 23.8173 9.92348C23.0342 5.24092 19.4004 1.38584 14.7758 0.329377C14.3651 0.235902 13.9381 0.178185 13.5255 0.122978C13.329 0.0966293 13.1256 0.0690258 12.9265 0.0382855C12.8838 0.0313846 12.8411 0.021347 12.8003 0.0119367C12.7827 0.00754523 12.7645 0.00378112 12.7469 -0.000610352H11.2481C11.1099 0.0182102 10.9718 0.0364035 10.8336 0.0539693C10.5366 0.0922378 10.2302 0.131761 9.93004 0.181949C8.26729 0.461121 6.71003 1.08722 5.30033 2.04268C5.13267 2.15623 5.0096 2.16752 4.83064 2.08408C4.56126 1.95861 4.27304 1.89776 3.98608 1.89776C3.44481 1.89776 2.90667 2.11357 2.5048 2.51946C1.89383 3.13741 1.72743 4.07342 2.09225 4.84757C2.16886 5.01005 2.15944 5.12612 2.05834 5.27668C-0.156984 8.57593 -0.614743 12.7353 0.833885 16.4034C2.29758 20.1104 5.39264 22.7604 9.32409 23.6725C12.6427 24.4423 15.8024 23.8532 18.7154 21.921C18.8692 21.8193 18.9816 21.8099 19.1449 21.8865C19.9304 22.2541 20.8736 22.0822 21.4921 21.4586C22.1024 20.8432 22.2669 19.9072 21.9027 19.1299C21.8267 18.968 21.8368 18.852 21.9398 18.7001C23.1184 16.9655 23.7984 15.0201 23.9611 12.9185C23.9655 12.8645 23.9761 12.8112 23.9868 12.7604C23.9918 12.7365 23.9962 12.7133 24.0006 12.6895V11.239H23.9994ZM3.9842 3.24719C4.17823 3.24594 4.37288 3.3275 4.51542 3.47179C4.65671 3.6142 4.73582 3.80554 4.73268 3.99625C4.72641 4.39086 4.38795 4.72775 3.99361 4.73214C3.9911 4.73214 3.98922 4.73214 3.98733 4.73214C3.7977 4.73214 3.60932 4.65246 3.4693 4.51194C3.32613 4.3689 3.24575 4.17505 3.24764 3.98057C3.25203 3.57906 3.58295 3.2497 3.9842 3.24719ZM20.0252 20.7328C20.0189 20.7328 20.0133 20.7328 20.007 20.7328C19.8205 20.7328 19.634 20.6562 19.494 20.5207C19.3489 20.3808 19.2648 20.1901 19.2635 19.9969C19.2617 19.8062 19.3439 19.6142 19.4883 19.4705C19.6328 19.3269 19.8255 19.2485 20.0152 19.2485C20.4095 19.2528 20.7455 19.591 20.7492 19.9862C20.753 20.3865 20.4284 20.7215 20.0259 20.7321L20.0252 20.7328ZM20.7599 18.0157L20.7467 18.0339L20.7254 18.027C20.0271 17.803 19.3829 17.8909 18.8114 18.288C18.0893 18.7899 17.7678 19.66 17.992 20.5044C18.0359 20.6688 18.0259 20.7798 17.8469 20.8946C16.0523 22.0483 14.1114 22.6305 12.0669 22.6305C11.7787 22.6305 11.4886 22.6192 11.1966 22.596C9.03147 22.4247 7.00955 21.6393 5.34994 20.3256C3.68342 19.0063 2.46712 17.2196 1.83292 15.1581C0.861514 11.9994 1.28913 8.96049 3.10447 6.12549C3.17668 6.01256 3.23759 5.94167 3.41215 5.98684C4.17634 6.18571 4.94681 5.98747 5.47301 5.4561C6.00298 4.92034 6.1945 4.14117 5.98477 3.37141C5.97786 3.34569 5.97096 3.31934 5.96468 3.29487L5.95149 3.24406L5.96907 3.23151C7.8786 1.86514 10.281 1.20453 12.7344 1.37141C15.3233 1.5477 17.7546 2.66438 19.5819 4.51696C21.4387 6.39964 22.4942 8.78295 22.6349 11.4091C22.7624 13.7899 22.0792 16.1983 20.7593 18.0151L20.7599 18.0157Z" fill="#4261DB"/>
<path d="M7.55396 19.2378C7.62303 19.2014 7.68331 19.1832 7.7436 19.1832C7.80702 19.1832 7.87044 19.2039 7.94328 19.2447C9.1985 19.9549 10.5586 20.2936 12.222 20.3125C12.2879 20.3049 12.3702 20.298 12.465 20.2892C12.7193 20.2667 13.0684 20.2353 13.41 20.1782C16.0869 19.7328 18.3022 18.0628 19.489 15.5967C20.6808 13.1192 20.5998 10.3325 19.2667 7.95048C19.1813 7.79803 19.1788 7.68699 19.2554 7.54144C19.6811 6.73655 19.5317 5.75976 18.883 5.11171C18.2344 4.46303 17.2573 4.31246 16.4517 4.73781C16.3048 4.81497 16.1942 4.81246 16.0417 4.72902C14.1089 3.66817 12.0537 3.40154 9.9338 3.9373C7.41833 4.57344 5.3851 6.31058 4.3553 8.70393C3.32424 11.1004 3.46176 13.7736 4.73331 16.0389C4.80427 16.1657 4.82939 16.2698 4.74461 16.4273C4.31386 17.2322 4.45765 18.2096 5.10253 18.8589C5.75118 19.512 6.73577 19.6644 7.55333 19.2372L7.55396 19.2378ZM7.11504 17.9122C6.97438 18.054 6.78726 18.1318 6.58695 18.1318H6.58444C6.17629 18.1305 5.85416 17.8106 5.85039 17.4034C5.84851 17.2014 5.92512 17.0126 6.0664 16.8708C6.20517 16.7315 6.39041 16.655 6.58695 16.655H6.59072C6.99259 16.6569 7.32288 16.985 7.32791 17.3859C7.33042 17.5841 7.25444 17.7711 7.11441 17.9122H7.11504ZM16.885 6.06215C17.0275 5.92162 17.2178 5.84634 17.42 5.84885C17.8268 5.85449 18.1452 6.17821 18.1446 6.58661C18.1446 6.98812 17.8181 7.31999 17.4187 7.32564C17.4149 7.32564 17.4112 7.32564 17.408 7.32564C17.2146 7.32564 17.0306 7.24973 16.89 7.11045C16.7462 6.96867 16.6671 6.78235 16.6671 6.58473C16.6671 6.38649 16.7449 6.20079 16.8856 6.06215H16.885ZM7.03215 7.10042C9.54135 4.55776 13.1381 4.58473 15.3949 5.92538L15.4156 5.93793L15.4087 5.96114C15.1896 6.71208 15.3798 7.49063 15.9173 8.0427C16.4605 8.60104 17.2322 8.80117 18.0347 8.59163L18.0573 8.58599L18.0692 8.60606C19.4023 10.8081 19.45 14.3576 16.9616 16.8802C15.5167 18.3451 13.712 18.9574 12.0104 18.9574C10.7564 18.9574 9.55893 18.6249 8.60197 18.0559L8.58188 18.044L8.58816 18.0214C8.80605 17.1933 8.62583 16.4856 8.05316 15.9179C7.48615 15.3557 6.78287 15.1807 5.96468 15.3978L5.94207 15.4041L5.93014 15.384C4.59328 13.1776 4.54305 9.62426 7.03278 7.10104L7.03215 7.10042Z" fill="#4261DB"/>
<path d="M10.3106 14.451C10.3143 14.451 10.3175 14.451 10.3212 14.451C10.5052 14.451 10.6101 14.5144 10.7049 14.6812C10.9253 15.0696 11.5564 16.1442 11.8477 16.6398C11.9155 16.7546 12.0813 16.7553 12.1491 16.6398C12.4424 16.1417 13.0797 15.0558 13.3045 14.6624C13.3918 14.5094 13.491 14.4516 13.6618 14.4516C14.1371 14.456 15.3792 14.446 15.9512 14.441C16.0844 14.4397 16.1672 14.2961 16.1019 14.18C15.8175 13.6781 15.1958 12.5846 14.9579 12.1762C14.8794 12.042 14.8794 11.9378 14.9572 11.8042C15.2059 11.3782 15.8231 10.2866 16.1057 9.78413C16.171 9.66744 16.0875 9.52378 15.9537 9.52378C15.3861 9.52378 14.1642 9.52315 13.6869 9.52942C13.4948 9.53382 13.3893 9.4692 13.2926 9.29919C13.0716 8.9096 12.4392 7.83306 12.1472 7.33683C12.0794 7.22139 11.913 7.22202 11.8452 7.33683C11.5583 7.82742 10.9416 8.88388 10.7055 9.29856C10.6082 9.4692 10.5027 9.53319 10.3118 9.52942C9.80885 9.52252 8.61641 9.52378 8.03935 9.52378C7.9056 9.52378 7.82146 9.66807 7.88739 9.78476C8.17561 10.2929 8.80479 11.4002 9.04027 11.8042C9.11813 11.9378 9.11813 12.042 9.04027 12.1762C8.79223 12.6028 8.17498 13.6944 7.89242 14.1963C7.82648 14.313 7.91062 14.4567 8.045 14.4567C8.61955 14.4567 9.80822 14.4579 10.3118 14.4516L10.3106 14.451ZM10.1071 10.8663C10.2164 10.8663 10.3219 10.8669 10.4248 10.8682C10.6861 10.8707 10.9335 10.8726 11.1777 10.8588C11.2606 10.8544 11.3755 10.7866 11.4239 10.7139C11.5589 10.5094 11.682 10.2954 11.8119 10.0689C11.8634 9.97986 11.9155 9.88827 11.9708 9.7948L11.9978 9.74837L12.0248 9.7948C12.0801 9.88827 12.1341 9.97861 12.1874 10.0671C12.3111 10.2722 12.4279 10.4654 12.5315 10.6668C12.6119 10.8224 12.7092 10.8776 12.8913 10.8695C13.113 10.86 13.3353 10.8619 13.5708 10.8638C13.6731 10.8644 13.7786 10.8657 13.8872 10.8657H13.9412L13.9149 10.9127C13.8584 11.0125 13.8043 11.1085 13.7516 11.2019C13.6254 11.4259 13.5067 11.6373 13.3818 11.8444C13.3164 11.9516 13.3158 12.0263 13.3786 12.1292C13.5048 12.3356 13.6248 12.5482 13.751 12.7735C13.8037 12.8676 13.8583 12.9648 13.9161 13.0658L13.9431 13.1129H13.8891C13.7748 13.1129 13.6643 13.1129 13.5576 13.1141C13.3045 13.1154 13.0653 13.116 12.8285 13.1104C12.6979 13.1066 12.6226 13.1511 12.5592 13.2659C12.4436 13.4774 12.3206 13.6844 12.1906 13.9033C12.1366 13.9943 12.0813 14.0871 12.0248 14.1838L11.9978 14.2302L11.9708 14.1838C11.9149 14.0878 11.8597 13.9962 11.8057 13.9065C11.6813 13.6994 11.5639 13.5043 11.4597 13.3023C11.3837 13.1555 11.2908 13.1035 11.1174 13.1097C10.8933 13.1179 10.6685 13.116 10.4305 13.1147C10.3269 13.1141 10.2208 13.1135 10.1109 13.1135H10.0569L10.0833 13.0664C10.1373 12.9717 10.1881 12.8795 10.2384 12.7891C10.3551 12.5784 10.4657 12.3801 10.5869 12.1869C10.6798 12.0388 10.6817 11.9372 10.5925 11.7998C10.4688 11.6091 10.3583 11.409 10.2402 11.1976C10.1887 11.1053 10.136 11.0106 10.0807 10.9127L10.0537 10.8657H10.1077L10.1071 10.8663Z" fill="#4261DB"/>
</g>
<defs>
<clipPath id="clip0_21_315">
<rect width="24" height="24" fill="white"/>
</clipPath>
</defs>
</svg>
