<svg width="21" height="21" viewBox="0 0 21 21" fill="none" xmlns="http://www.w3.org/2000/svg">
<g clip-path="url(#clip0_33_475)">
<path d="M13.0282 6.41178C14.3982 5.04575 15.7629 3.68559 17.127 2.32485C17.1188 2.30662 17.1099 2.28897 17.1017 2.27073C17.0258 2.2672 16.9499 2.26073 16.8735 2.26073C15.8388 2.26014 14.8035 2.26308 13.7688 2.25896C13.1311 2.25661 12.6952 1.91128 12.5805 1.33121C12.4599 0.718791 12.8799 0.117548 13.4964 0.0234195C13.5905 0.00930025 13.6864 0.000475727 13.7811 0.000475727C15.7923 -0.000700876 17.8035 -0.00128918 19.8146 0.00165233C19.9529 0.00165233 20.0952 0.0140067 20.2282 0.0493047C20.6999 0.175201 20.997 0.569951 20.9976 1.07824C21.0005 3.14789 21.0005 5.21753 20.9964 7.28718C20.9952 7.93489 20.6111 8.3873 20.0141 8.47378C19.4841 8.55026 18.9582 8.22434 18.8017 7.70369C18.7558 7.55191 18.7417 7.38601 18.7405 7.22658C18.7352 6.19882 18.7376 5.17164 18.7376 4.14388V3.92621C17.3782 5.28872 16.0188 6.65181 14.6429 8.03138C16.1835 10.1763 16.6476 12.586 15.9017 15.1922C15.3582 17.0918 14.2293 18.5861 12.5799 19.6739C9.26817 21.8588 4.80346 21.2917 2.10523 18.3537C-0.543006 15.4699 -0.717712 10.9982 1.71935 7.87254C3.07817 6.1294 4.87935 5.11576 7.06876 4.84161C9.24523 4.56922 11.2282 5.11458 13.0282 6.41178ZM8.16111 18.7791C11.4158 18.7826 14.0558 16.1464 14.0588 12.8884C14.0617 9.62391 11.4423 6.99361 8.17876 6.98538C4.9117 6.97655 2.26288 9.61744 2.26464 12.8813C2.26641 16.1346 4.90641 18.7755 8.16111 18.7791Z" fill="#1D41FF"/>
</g>
<defs>
<clipPath id="clip0_33_475">
<rect width="21" height="21" fill="white"/>
</clipPath>
</defs>
</svg>
