<?xml version="1.0" encoding="utf-8"?>
<!-- Generator: Adobe Illustrator 23.0.3, SVG Export Plug-In . SVG Version: 6.00 Build 0)  -->
<svg version="1.1" id="Слой_1" xmlns="http://www.w3.org/2000/svg" xmlns:xlink="http://www.w3.org/1999/xlink" x="0px" y="0px"
	 viewBox="0 0 24 24" style="enable-background:new 0 0 24 24;" xml:space="preserve">
<style type="text/css">
	.st0{clip-path:url(#SVGID_2_);}
	.st1{fill:#4261DB;}
</style>
<g>
	<defs>
		<rect id="SVGID_1_" y="0" width="24" height="24"/>
	</defs>
	<clipPath id="SVGID_2_">
		<use xlink:href="#SVGID_1_"  style="overflow:visible;"/>
	</clipPath>
	<g class="st0">
		<path class="st1" d="M24,11.2c0-0.1,0-0.3-0.1-0.4c0-0.3-0.1-0.6-0.1-0.9c-0.8-4.7-4.4-8.5-9-9.6c-0.4-0.1-0.8-0.2-1.3-0.2
			c-0.2,0-0.4-0.1-0.6-0.1c0,0-0.1,0-0.1,0c0,0,0,0-0.1,0h-1.5c-0.1,0-0.3,0-0.4,0.1c-0.3,0-0.6,0.1-0.9,0.1C8.3,0.5,6.7,1.1,5.3,2
			C5.1,2.2,5,2.2,4.8,2.1C4.6,2,4.3,1.9,4,1.9c-0.5,0-1.1,0.2-1.5,0.6C1.9,3.1,1.7,4.1,2.1,4.8c0.1,0.2,0.1,0.3,0,0.4
			c-2.2,3.3-2.7,7.5-1.2,11.1c1.5,3.7,4.6,6.4,8.5,7.3c3.3,0.8,6.5,0.2,9.4-1.8c0.2-0.1,0.3-0.1,0.4,0c0.8,0.4,1.7,0.2,2.3-0.4
			c0.6-0.6,0.8-1.6,0.4-2.3c-0.1-0.2-0.1-0.3,0-0.4c1.2-1.7,1.9-3.7,2-5.8c0-0.1,0-0.1,0-0.2c0,0,0,0,0-0.1L24,11.2L24,11.2z M4,3.2
			c0.2,0,0.4,0.1,0.5,0.2C4.7,3.6,4.7,3.8,4.7,4c0,0.4-0.3,0.7-0.7,0.7c0,0,0,0,0,0c-0.2,0-0.4-0.1-0.5-0.2C3.3,4.4,3.2,4.2,3.2,4
			C3.3,3.6,3.6,3.2,4,3.2z M20,20.7C20,20.7,20,20.7,20,20.7c-0.2,0-0.4-0.1-0.5-0.2c-0.1-0.1-0.2-0.3-0.2-0.5
			c0-0.2,0.1-0.4,0.2-0.5c0.1-0.1,0.3-0.2,0.5-0.2c0.4,0,0.7,0.3,0.7,0.7C20.8,20.4,20.4,20.7,20,20.7L20,20.7z M20.8,18L20.8,18
			L20.8,18c-0.7-0.2-1.4-0.1-1.9,0.3c-0.7,0.5-1,1.4-0.8,2.2c0,0.2,0,0.3-0.1,0.4c-1.8,1.2-3.7,1.7-5.8,1.7c-0.3,0-0.6,0-0.9,0
			c-2.2-0.2-4.2-1-5.8-2.3c-1.7-1.3-2.9-3.1-3.5-5.2c-1-3.2-0.5-6.2,1.3-9C3.2,6,3.2,5.9,3.4,6c0.8,0.2,1.5,0,2.1-0.5
			C6,4.9,6.2,4.1,6,3.4c0,0,0-0.1,0-0.1l0-0.1l0,0c1.9-1.4,4.3-2,6.8-1.9c2.6,0.2,5,1.3,6.8,3.1c1.9,1.9,2.9,4.3,3.1,6.9
			C22.8,13.8,22.1,16.2,20.8,18L20.8,18z"/>
		<path class="st1" d="M7.6,19.2c0.1,0,0.1-0.1,0.2-0.1c0.1,0,0.1,0,0.2,0.1c1.3,0.7,2.6,1,4.3,1.1c0.1,0,0.1,0,0.2,0
			c0.3,0,0.6-0.1,0.9-0.1c2.7-0.4,4.9-2.1,6.1-4.6c1.2-2.5,1.1-5.3-0.2-7.6c-0.1-0.2-0.1-0.3,0-0.4c0.4-0.8,0.3-1.8-0.4-2.4
			c-0.6-0.6-1.6-0.8-2.4-0.4c-0.1,0.1-0.3,0.1-0.4,0c-1.9-1.1-4-1.3-6.1-0.8C7.4,4.6,5.4,6.3,4.4,8.7c-1,2.4-0.9,5.1,0.4,7.3
			c0.1,0.1,0.1,0.2,0,0.4c-0.4,0.8-0.3,1.8,0.4,2.4C5.8,19.5,6.7,19.7,7.6,19.2L7.6,19.2z M7.1,17.9c-0.1,0.1-0.3,0.2-0.5,0.2h0
			c-0.4,0-0.7-0.3-0.7-0.7c0-0.2,0.1-0.4,0.2-0.5c0.1-0.1,0.3-0.2,0.5-0.2h0c0.4,0,0.7,0.3,0.7,0.7C7.3,17.6,7.3,17.8,7.1,17.9
			L7.1,17.9z M16.9,6.1c0.1-0.1,0.3-0.2,0.5-0.2c0.4,0,0.7,0.3,0.7,0.7c0,0.4-0.3,0.7-0.7,0.7c0,0,0,0,0,0c-0.2,0-0.4-0.1-0.5-0.2
			c-0.1-0.1-0.2-0.3-0.2-0.5C16.7,6.4,16.7,6.2,16.9,6.1L16.9,6.1z M7,7.1c2.5-2.5,6.1-2.5,8.4-1.2l0,0l0,0c-0.2,0.8,0,1.5,0.5,2.1
			c0.5,0.6,1.3,0.8,2.1,0.5l0,0l0,0c1.3,2.2,1.4,5.8-1.1,8.3c-1.4,1.5-3.2,2.1-5,2.1c-1.3,0-2.5-0.3-3.4-0.9l0,0l0,0
			c0.2-0.8,0-1.5-0.5-2.1c-0.6-0.6-1.3-0.7-2.1-0.5l0,0l0,0C4.6,13.2,4.5,9.6,7,7.1L7,7.1z"/>
	</g>
</g>
<g>
	<path class="st1" d="M12.7,8.2h-1.5l-2.9,6.4h1.5l0.6-1.4h3l0.6,1.4h1.6L12.7,8.2z M11,12.1l1-2.5l1,2.5H11z"/>
</g>
</svg>
