<?xml version="1.0" encoding="utf-8"?>
<!-- Generator: Adobe Illustrator 23.0.3, SVG Export Plug-In . SVG Version: 6.00 Build 0)  -->
<svg version="1.1" id="Слой_1" xmlns="http://www.w3.org/2000/svg" xmlns:xlink="http://www.w3.org/1999/xlink" x="0px" y="0px"
	 viewBox="0 0 24 24" style="enable-background:new 0 0 24 24;" xml:space="preserve">
<style type="text/css">
	.st0{fill:#4261DB;}
</style>
<g>
	<path class="st0" d="M20.2,7.8C20.9,7,21.4,6,21.4,4.9c0-2.3-1.9-4.2-4.2-4.2c-2.3,0-4.2,1.9-4.2,4.2C12.9,6,13.3,7,14,7.8
		c-0.8,0.2-1.5,0.6-2.1,1.1c0.2,0.6,0.4,1.2,0.4,1.8c0.6-0.9,1.7-1.5,2.9-1.5h3.7c1.9,0,3.5,1.6,3.5,3.5v2.8H24v-2.8
		C24,10.3,22.4,8.3,20.2,7.8z M17.1,7.6c-1.5,0-2.7-1.2-2.7-2.7c0-1.5,1.2-2.7,2.7-2.7c1.5,0,2.7,1.2,2.7,2.7
		C19.8,6.4,18.6,7.6,17.1,7.6z"/>
	<path class="st0" d="M12.8,17.6H15l1.3-1.3v4c0,0.8-0.7,1.5-1.5,1.5H1.5v-3c0-1.9,1.6-3.5,3.5-3.5h3.5c0.8,0,1.7,0.3,2.3,0.8
		c0.3,0.2,0.6,0.5,0.8,0.8l1.1-1.1c-0.7-0.9-1.7-1.6-2.8-1.9c0.8-0.9,1.3-2.1,1.1-3.5c-0.3-1.9-1.8-3.4-3.7-3.6
		c-2.6-0.3-4.7,1.7-4.7,4.2c0,1.1,0.4,2.1,1.1,2.9C1.6,14.5,0,16.5,0,18.8v4.5h15.1c1.5,0,2.8-1.2,2.8-2.8v-4.4l1.4,1.4h2.2
		l-4.3-4.3L12.8,17.6z M6.9,8.4c1.5,0,2.7,1.2,2.7,2.7s-1.2,2.7-2.7,2.7c-1.5,0-2.7-1.2-2.7-2.7S5.4,8.4,6.9,8.4z"/>
</g>
</svg>
