<svg width="20" height="21" viewBox="0 0 20 21" fill="none" xmlns="http://www.w3.org/2000/svg">
<g opacity="0.8">
<path fill-rule="evenodd" clip-rule="evenodd" d="M3.9625 8.88254C4.24623 7.82265 4.80399 6.85614 5.57969 6.08016C6.35539 5.30417 7.3217 4.74607 8.38149 4.46195C9.44127 4.17784 10.5572 4.17772 11.617 4.46161C12.6769 4.7455 13.6433 5.30339 14.4192 6.0792L16.005 7.66504H13.3525C13.1867 7.66504 13.0278 7.73089 12.9106 7.8481C12.7933 7.96531 12.7275 8.12428 12.7275 8.29004C12.7275 8.4558 12.7933 8.61477 12.9106 8.73198C13.0278 8.84919 13.1867 8.91504 13.3525 8.91504H17.5125C17.6783 8.91504 17.8372 8.84919 17.9544 8.73198C18.0716 8.61477 18.1375 8.4558 18.1375 8.29004V4.13004C18.1375 3.96428 18.0716 3.80531 17.9544 3.6881C17.8372 3.57089 17.6783 3.50504 17.5125 3.50504C17.3467 3.50504 17.1878 3.57089 17.0706 3.6881C16.9533 3.80531 16.8875 3.96428 16.8875 4.13004V6.78004L15.3042 5.1967C14.3733 4.26542 13.2137 3.59561 11.9419 3.25462C10.67 2.91364 9.33086 2.9135 8.05896 3.25421C6.78707 3.59492 5.6273 4.26449 4.69624 5.19558C3.76518 6.12667 3.09566 7.28647 2.755 8.55837C2.73377 8.63771 2.72837 8.72046 2.73912 8.80188C2.74987 8.88331 2.77655 8.96182 2.81764 9.03293C2.85873 9.10405 2.91342 9.16637 2.9786 9.21635C3.04378 9.26632 3.11816 9.30297 3.1975 9.3242C3.27684 9.34543 3.35958 9.35083 3.44101 9.34008C3.52243 9.32933 3.60094 9.30265 3.67206 9.26156C3.74317 9.22047 3.8055 9.16578 3.85547 9.1006C3.90545 9.03543 3.9421 8.96104 3.96333 8.8817L3.9625 8.88254ZM16.8025 11.6759C16.7232 11.6546 16.6405 11.6491 16.5591 11.6598C16.4777 11.6704 16.3992 11.697 16.3281 11.738C16.257 11.7791 16.1946 11.8337 16.1446 11.8988C16.0946 11.9639 16.0579 12.0382 16.0367 12.1175C15.7529 13.1774 15.1952 14.1439 14.4195 14.9199C13.6438 15.6959 12.6775 16.254 11.6177 16.5381C10.5579 16.8222 9.44199 16.8224 8.38214 16.5385C7.3223 16.2546 6.35587 15.6967 5.58 14.9209L3.995 13.335H6.6475C6.81326 13.335 6.97223 13.2692 7.08944 13.152C7.20665 13.0348 7.2725 12.8758 7.2725 12.71C7.2725 12.5443 7.20665 12.3853 7.08944 12.2681C6.97223 12.1509 6.81326 12.085 6.6475 12.085H2.48666C2.3209 12.085 2.16193 12.1509 2.04472 12.2681C1.92751 12.3853 1.86166 12.5443 1.86166 12.71V16.87C1.86166 17.0358 1.92751 17.1948 2.04472 17.312C2.16193 17.4292 2.3209 17.495 2.48666 17.495C2.65242 17.495 2.8114 17.4292 2.92861 17.312C3.04582 17.1948 3.11166 17.0358 3.11166 16.87V14.22L4.695 15.8034C5.62591 16.7347 6.78561 17.4044 8.05748 17.7454C9.32935 18.0863 10.6686 18.0864 11.9405 17.7456C13.2124 17.4048 14.3721 16.7351 15.3032 15.8039C16.2342 14.8727 16.9036 13.7128 17.2442 12.4409C17.2869 12.2809 17.2644 12.1104 17.1816 11.967C17.0988 11.8235 16.9625 11.7188 16.8025 11.6759Z" fill="white"/>
</g>
</svg>
